<svg width="114" height="126" viewBox="0 0 114 126" fill="none" xmlns="http://www.w3.org/2000/svg">
<path d="M111.434 52.7227L109.983 53.1036L109.942 52.9465L109.935 52.7842L111.434 52.7227ZM0.97118 115.493C0.368318 114.925 0.340215 113.975 0.908412 113.372L10.1677 103.548C10.7359 102.945 11.6852 102.917 12.2881 103.485C12.891 104.054 12.9191 105.003 12.3509 105.606L4.12038 114.338L12.853 122.569C13.4559 123.137 13.484 124.086 12.9158 124.689C12.3476 125.292 11.3983 125.32 10.7954 124.752L0.97118 115.493ZM8.52072 0.594605C59.3033 3.57972 85.4333 16.3014 98.8806 28.5276C105.605 34.6416 109.122 40.6007 110.955 45.0797C111.87 47.3162 112.364 49.177 112.628 50.4957C112.761 51.155 112.836 51.6789 112.879 52.0466C112.9 52.2305 112.913 52.3753 112.921 52.4786C112.925 52.5303 112.928 52.5715 112.93 52.602C112.931 52.6173 112.931 52.6299 112.932 52.6398C112.932 52.6447 112.932 52.649 112.932 52.6526C112.933 52.6543 112.933 52.6565 112.933 52.6574C112.933 52.6594 112.933 52.6612 111.434 52.7227C109.935 52.7842 109.935 52.7857 109.935 52.787C109.935 52.7872 109.935 52.7883 109.936 52.7887C109.936 52.7896 109.936 52.7898 109.936 52.7893C109.935 52.7884 109.935 52.7847 109.935 52.7785C109.934 52.7661 109.933 52.7431 109.93 52.71C109.925 52.6439 109.916 52.5371 109.899 52.3922C109.865 52.1025 109.802 51.6605 109.687 51.0864C109.456 49.9383 109.016 48.2617 108.179 46.2161C106.507 42.1311 103.242 36.5476 96.8625 30.7473C84.1013 19.1449 58.7306 6.55123 8.34468 3.58944L8.52072 0.594605ZM111.434 52.7227C112.885 52.3418 112.885 52.3435 112.886 52.3453C112.886 52.3463 112.887 52.3484 112.887 52.3502C112.888 52.3539 112.889 52.3585 112.891 52.364C112.893 52.3749 112.897 52.3894 112.901 52.4073C112.91 52.4432 112.922 52.493 112.937 52.5562C112.965 52.6827 113.004 52.8632 113.048 53.0942C113.136 53.556 113.245 54.2205 113.336 55.0598C113.518 56.7377 113.63 59.12 113.358 61.9825C112.815 67.7167 110.736 75.3661 104.642 83.106C92.4563 98.5846 64.5397 114.05 2.04438 115.9L1.95561 112.902C64.1179 111.062 90.9184 95.6883 102.285 81.2502C107.968 74.0318 109.874 66.9535 110.372 61.6995C110.621 59.068 110.517 56.8911 110.353 55.3834C110.272 54.6299 110.175 54.0449 110.101 53.6555C110.064 53.4608 110.033 53.3152 110.011 53.2221C110.001 53.1755 109.993 53.142 109.988 53.1222C109.985 53.1122 109.984 53.1056 109.983 53.1025C109.983 53.101 109.982 53.1003 109.982 53.1005C109.982 53.1005 109.983 53.1013 109.983 53.1014C109.983 53.1024 109.983 53.1036 111.434 52.7227Z" fill="black"/>
</svg>
