<svg width="113" height="125" viewBox="0 0 113 125" fill="none" xmlns="http://www.w3.org/2000/svg">
<path d="M2.66821 46.6279L4.09123 47.1023L4.14386 46.9444L4.1606 46.7788L2.66821 46.6279ZM112.134 115.771C112.768 115.238 112.849 114.292 112.316 113.658L103.626 103.327C103.093 102.693 102.146 102.611 101.513 103.144C100.879 103.678 100.797 104.624 101.33 105.258L109.055 114.441L99.8716 122.166C99.2377 122.699 99.156 123.645 99.6893 124.279C100.223 124.913 101.169 124.995 101.803 124.461L112.134 115.771ZM111.168 0.627733C58.9772 0.627733 31.4749 11.791 16.9901 23.1994C9.74503 28.9058 5.7921 34.6475 3.64969 39.0141C2.58003 41.1942 1.96509 43.0246 1.61585 44.3274C1.44125 44.9788 1.33306 45.4983 1.26761 45.8638C1.23489 46.0466 1.21286 46.1909 1.19854 46.294C1.19138 46.3456 1.18616 46.3868 1.1825 46.4174C1.18067 46.4327 1.17922 46.4454 1.17813 46.4553C1.17758 46.4603 1.17712 46.4646 1.17674 46.4682C1.17654 46.47 1.17632 46.4722 1.17622 46.4731C1.17601 46.4752 1.17583 46.477 2.66821 46.6279C4.1606 46.7788 4.16045 46.7804 4.16031 46.7817C4.16029 46.7819 4.16016 46.7831 4.16011 46.7836C4.16002 46.7845 4.15999 46.7847 4.16004 46.7843C4.16013 46.7835 4.16052 46.78 4.16125 46.7739C4.1627 46.7617 4.16552 46.7392 4.17005 46.7065C4.17911 46.6412 4.19504 46.5357 4.22067 46.3925C4.27192 46.1062 4.36198 45.6696 4.51355 45.1042C4.81665 43.9735 5.36578 42.3272 6.34299 40.3355C8.29433 36.3583 11.9664 30.975 18.8463 25.5562C32.6115 14.7146 59.3593 3.62773 111.168 3.62773L111.168 0.627733ZM2.66821 46.6279C1.2452 46.1536 1.24464 46.1552 1.24402 46.1571C1.24372 46.158 1.24303 46.1601 1.24242 46.162C1.24121 46.1656 1.23973 46.1702 1.23797 46.1756C1.23446 46.1864 1.22987 46.2007 1.22428 46.2185C1.21311 46.2539 1.19794 46.3031 1.17942 46.3656C1.1424 46.4905 1.09195 46.6688 1.03322 46.8972C0.915786 47.3539 0.765062 48.0117 0.622342 48.8453C0.337032 50.5118 0.0827224 52.8862 0.192744 55.7628C0.413191 61.5266 2.097 69.2894 7.88613 77.3743C19.4571 93.5337 47.1341 110.605 111.039 116.118L111.297 113.129C47.7024 107.643 21.1293 90.7161 10.3253 75.6277C4.92692 68.0886 3.39198 60.9148 3.19056 55.6481C3.08963 53.0095 3.32362 50.8451 3.57931 49.3516C3.7071 48.6052 3.84007 48.0278 3.93871 47.6443C3.98801 47.4525 4.02869 47.3094 4.05578 47.218C4.06932 47.1723 4.07946 47.1395 4.08558 47.1201C4.08864 47.1104 4.09069 47.104 4.09166 47.101C4.09214 47.0996 4.09235 47.0989 4.09229 47.0991C4.09225 47.0992 4.09198 47.1 4.09197 47.1001C4.09163 47.1011 4.09123 47.1023 2.66821 46.6279Z" fill="black"/>
</svg>
